<svg width="163" height="53" viewBox="0 0 163 53" fill="none" xmlns="http://www.w3.org/2000/svg">
<path d="M106.092 26.169C107.97 26.169 109.412 26.699 110.418 27.759C111.424 28.819 111.927 30.4808 111.927 32.7443V44.5203H110.387V32.8437C110.387 31.055 110.008 29.741 109.248 28.9018C108.488 28.0627 107.385 27.6431 105.938 27.6431C104.1 27.6431 102.694 28.2228 101.719 29.3821C100.754 30.5305 100.271 32.2695 100.271 34.5993V44.5203H98.7163V26.5168H99.9789L100.21 29.7962H100.302C100.6 29.1227 101.005 28.5154 101.519 27.9743C102.042 27.4223 102.684 26.9861 103.443 26.6659C104.203 26.3346 105.086 26.169 106.092 26.169Z" fill="#0F172A"/>
<path d="M118.933 44.5203H117.362V18.749H118.933V44.5203Z" fill="#0F172A"/>
<path d="M126.047 26.5168V44.5203H124.491V26.5168H126.047ZM125.292 19.8587C125.682 19.8587 125.97 19.9857 126.154 20.2396C126.339 20.4826 126.431 20.8138 126.431 21.2334C126.431 21.653 126.339 21.9842 126.154 22.2271C125.97 22.4701 125.682 22.5915 125.292 22.5915C124.923 22.5915 124.645 22.4701 124.461 22.2271C124.276 21.9842 124.183 21.653 124.183 21.2334C124.183 20.8138 124.276 20.4826 124.461 20.2396C124.645 19.9857 124.923 19.8587 125.292 19.8587Z" fill="#0F172A"/>
<path d="M139.011 26.169C140.89 26.169 142.332 26.699 143.338 27.759C144.344 28.819 144.847 30.4808 144.847 32.7443V44.5203H143.307V32.8437C143.307 31.055 142.927 29.741 142.168 28.9018C141.408 28.0627 140.304 27.6431 138.857 27.6431C137.02 27.6431 135.613 28.2228 134.638 29.3821C133.673 30.5305 133.191 32.2695 133.191 34.5993V44.5203H131.636V26.5168H132.898L133.129 29.7962H133.222C133.519 29.1227 133.925 28.5154 134.438 27.9743C134.962 27.4223 135.603 26.9861 136.363 26.6659C137.122 26.3346 138.005 26.169 139.011 26.169Z" fill="#0F172A"/>
<path d="M156.61 26.169C158.037 26.169 159.223 26.5279 160.167 27.2456C161.122 27.9633 161.83 28.946 162.292 30.1937C162.764 31.4414 163 32.8713 163 34.4834V35.6925H150.913C150.913 38.1658 151.442 40.065 152.499 41.39C153.567 42.715 155.091 43.3775 157.072 43.3775C158.109 43.3775 159.007 43.2891 159.767 43.1125C160.536 42.9248 161.388 42.6101 162.323 42.1684V43.7087C161.501 44.1062 160.68 44.3933 159.859 44.57C159.038 44.7577 158.093 44.8515 157.026 44.8515C155.332 44.8515 153.911 44.4761 152.761 43.7253C151.621 42.9634 150.759 41.8924 150.174 40.5121C149.599 39.1319 149.312 37.5199 149.312 35.6759C149.312 33.8761 149.589 32.2585 150.143 30.8231C150.708 29.3877 151.529 28.2559 152.607 27.4278C153.695 26.5886 155.029 26.169 156.61 26.169ZM156.595 27.61C154.993 27.61 153.695 28.1841 152.699 29.3325C151.714 30.4698 151.134 32.115 150.959 34.2681H161.383C161.383 32.9541 161.209 31.7948 160.86 30.79C160.511 29.7852 159.982 29.0067 159.274 28.4546C158.576 27.8915 157.683 27.61 156.595 27.61Z" fill="#0F172A"/>
<path d="M93 27.469C93 30.0754 92.6463 32.4542 91.9388 34.6055C91.2313 36.7361 90.1815 38.5771 88.7894 40.1285C87.3973 41.68 85.6629 42.8797 83.5861 43.7278C81.5322 44.5759 79.1359 45 76.3973 45C73.7956 45 71.4793 44.5863 69.4481 43.7589C67.417 42.9108 65.694 41.711 64.279 40.1596C62.8869 38.6082 61.8257 36.7671 61.0954 34.6365C60.3651 32.4852 60 30.096 60 27.469C60 23.849 60.6618 20.7358 61.9855 18.1294C63.332 15.5024 65.249 13.4959 67.7365 12.1099C70.2469 10.7033 73.2479 10 76.7396 10C80.3454 10 83.3465 10.7447 85.7427 12.234C88.1618 13.7027 89.9761 15.7506 91.1857 18.3777C92.3952 21.0047 93 24.0352 93 27.469ZM63.5602 27.469C63.5602 30.427 64.028 33.0127 64.9637 35.2261C65.8994 37.4394 67.3143 39.1667 69.2085 40.4078C71.1255 41.6489 73.5446 42.2695 76.4658 42.2695C79.4554 42.2695 81.9087 41.6489 83.8257 40.4078C85.7427 39.1667 87.1577 37.4291 88.0705 35.195C88.9834 32.961 89.4398 30.3856 89.4398 27.469C89.4398 24.635 89.0062 22.1114 88.139 19.8981C87.2718 17.6847 85.9025 15.9471 84.0311 14.6853C82.1598 13.4028 79.7178 12.7615 76.7054 12.7615C72.3921 12.7615 69.1172 14.0647 66.8807 16.6711C64.667 19.2775 63.5602 22.8768 63.5602 27.469Z" fill="#0D9488"/>
<path fill-rule="evenodd" clip-rule="evenodd" d="M47.0001 53V0L48.9709 0V53H47.0001Z" fill="#0F172A"/>
<path d="M37 47H33.0417L18.5168 29.6389L3.79057 47H0L16.5041 27.7661L1.47597 10H5.40073L18.651 25.9186L32.0018 10H35.7924L20.6636 27.7408L37 47Z" fill="#EA580C"/>
</svg>
